<svg id="footer-logo" xmlns="http://www.w3.org/2000/svg" viewBox="0 0 336 86.54"><defs><style>.cls-1{fill-rule:evenodd;}</style></defs><rect id="Rectangle" y="61.64" width="336" height="1.2"/><path id="Path" class="cls-1" d="M27,77c-.7.2-.9.5-1.5,1.7-1.2,2.6-2.2,4.7-3,6.8-.2.6-.4,1-.5,1.3-.1,0-.2.1-.3.1a.37.37,0,0,1-.3-.1c-.3-.9-1.3-2.9-1.9-4.2a38.9,38.9,0,0,0-1.9,4.2c-.1,0-.2.1-.3.1a.37.37,0,0,1-.3-.1,12.21,12.21,0,0,0-1.1-2.4L13,78.2c-.3-.7-.5-.9-1.1-1.1l-.4-.1c-.1-.1-.1-.1-.1-.2a.35.35,0,0,1,.1-.2h3.7a.3.3,0,0,1,0,.4H15c-.2,0-.4.1-.4.2a3,3,0,0,0,.4,1l1.8,3.9a10.21,10.21,0,0,0,1.1,2.2,20.92,20.92,0,0,0,1-2.1,1.42,1.42,0,0,0,.2-.6c0-.2-.1-.3-.1-.5l-1.6-3.4c-.3-.6-.5-.8-.9-.9l-.5.1c-.1-.1-.1-.1-.1-.2a.35.35,0,0,1,.1-.2h3.5a.3.3,0,0,1,0,.4l-.3.1c-.2,0-.3.1-.3.2s.1.3.1.5c.3.8.7,1.5,1,2.2a11.11,11.11,0,0,0,.7-1.6,2,2,0,0,0,.3-1.1c0-.1-.1-.2-.3-.2l-.4-.1a.3.3,0,0,1,0-.4h2.8c.1.1.1.1.1.2s0,.2-.1.2l-.2.1c-.6.1-.7.3-1.2,1.2-.3.6-.7,1.4-1.1,2.1-.1.1-.1.3-.2.4s.1.2.1.4l.7,1.4a17.86,17.86,0,0,0,.9,1.9c.8-1.8,1.6-3.8,2.4-5.8a7.84,7.84,0,0,0,.5-1.4c0-.1-.3-.2-.5-.2l-.3-.1c-.1-.1-.1-.1-.1-.2s0-.2.1-.2h3.1a.3.3,0,0,1,0,.4Z" transform="translate(0 -0.36)"/><path id="Shape" d="M36.5,82.9c-.4,0-.4,0-.5.4l-.6,1.8c-.3.9-.2.9.3,1l.4.1c.1.1.1.4,0,.4H33a.3.3,0,0,1,0-.4l.5-.1a1,1,0,0,0,.8-.7c.2-.4.4-1,.8-1.9l2.1-5.4a3.63,3.63,0,0,0,.3-1.1c.5-.1,1-.7,1.1-.7a.37.37,0,0,1,.3.1,17.23,17.23,0,0,0,.7,2.1l2.2,6.4c.4,1,.4,1.1,1.2,1.3h.2a.3.3,0,0,1,0,.4H39.3a.3.3,0,0,1,0-.4h.3c.5-.1.6-.2.4-.8l-.7-2.1c-.1-.4-.2-.4-.6-.4Zm1.8-.7c.4,0,.5,0,.4-.4L38.1,80c-.1-.4-.3-.8-.4-1.2h0a10.6,10.6,0,0,0-.5,1.2l-.6,1.8c-.2.4-.1.4.2.4Z" transform="translate(0 -0.36)"/><path class="cls-1" d="M52,86.2a4.35,4.35,0,0,1-.5-2.3.44.44,0,0,1,.5-.1c.3.8,1.1,2.4,2.6,2.4a1.58,1.58,0,0,0,1.8-1.6,2.34,2.34,0,0,0-1.6-2.2l-.6-.4A3.34,3.34,0,0,1,52,79.1c0-1.5,1.1-2.8,3.4-2.8a7.61,7.61,0,0,1,2.1.3,7.61,7.61,0,0,1,.3,2.1.33.33,0,0,1-.5,0,2.16,2.16,0,0,0-2.1-1.8,1.55,1.55,0,0,0-1.7,1.6,2.39,2.39,0,0,0,1.4,1.9l.9.5a3.46,3.46,0,0,1,2.1,3c0,1.7-1.3,3-3.5,3A4.2,4.2,0,0,1,52,86.2Z" transform="translate(0 -0.36)"/><path class="cls-1" d="M70.6,81.7c-.8,0-.8,0-.8.4v2.2c0,1.6.1,1.6.9,1.7l.5.1c.1.1.1.4,0,.4H67.1a.3.3,0,0,1,0-.4h.2c.7-.1.9-.2.9-1.8V78.6c0-1.6-.1-1.7-.9-1.8H67a.3.3,0,0,1,0-.4h4.1a.3.3,0,0,1,0,.4h-.3c-.7.1-.9.1-.9,1.8v1.8c0,.4,0,.5.8.5h3.6c.8,0,.8,0,.8-.5V78.6c0-1.6-.1-1.7-.9-1.8h-.3a.3.3,0,0,1,0-.4H78a.3.3,0,0,1,0,.4h-.3c-.7.1-.9.1-.9,1.8v5.7c0,1.6.1,1.7.9,1.8H78c.1.1.1.4,0,.4H73.9a.3.3,0,0,1,0-.4h.3c.7-.1.9-.1.9-1.8V82.1c0-.4,0-.4-.8-.4Z" transform="translate(0 -0.36)"/><path class="cls-1" d="M90.1,84.4c0,1.6.1,1.7.9,1.8h.3a.3.3,0,0,1,0,.4H87.2a.3.3,0,0,1,0-.4h.3c.7-.1.9-.1.9-1.8V78.7c0-1.6-.1-1.7-.9-1.8h-.3a.3.3,0,0,1,0-.4h4.1a.3.3,0,0,1,0,.4H91c-.7.1-.9.1-.9,1.8Z" transform="translate(0 -0.36)"/><path class="cls-1" d="M110.1,84v2.7c-.1.2-.3.2-.5.2-.2-.3-.7-.8-1.8-2.1l-3.6-4.1c-1-1.1-1.5-1.7-1.7-1.9v4a8.08,8.08,0,0,0,.3,3,1.23,1.23,0,0,0,.8.4h.3c.1.1.1.4,0,.4h-3.3c-.1-.1-.1-.1-.1-.2s0-.2.1-.2l.3-.1c.3-.1.6-.1.7-.4a11.93,11.93,0,0,0,.2-3V79.1c0-1.2,0-1.4-.5-1.9a1.91,1.91,0,0,0-.8-.3h-.2c-.1-.1-.1-.4.1-.4a10.74,10.74,0,0,0,1.8,0h1.1a18.5,18.5,0,0,0,2.5,3.2l1.5,1.6c.6.7,2.1,2.3,2.2,2.4V80.3a8.08,8.08,0,0,0-.3-3,1.23,1.23,0,0,0-.8-.4H108c-.1-.1-.1-.4,0-.4h3.4c.1.1.1.1.1.2s0,.2-.1.2l-.4.1c-.3.1-.5.1-.7.4a11.93,11.93,0,0,0-.2,3Z" transform="translate(0 -0.36)"/><path class="cls-1" d="M129.3,85a1.25,1.25,0,0,0,.4,1.1.14.14,0,0,1,0,.2c-.2,0-.5.1-.7.1a15.44,15.44,0,0,1-3,.4,6.34,6.34,0,0,1-4.7-1.7,4.52,4.52,0,0,1-1.3-3.5,5.43,5.43,0,0,1,1.4-3.6,6.42,6.42,0,0,1,4.9-1.8,12.31,12.31,0,0,1,2,.2,3.08,3.08,0,0,0,1,.1c0,.5.1,1.2.2,2.4-.1.1-.1.1-.2.1a.37.37,0,0,1-.3-.1,2.66,2.66,0,0,0-2.9-2.2c-2.7,0-4,1.9-4,4.5a5.6,5.6,0,0,0,1.1,3.5,4,4,0,0,0,3,1.3c.7,0,1.2-.1,1.4-.4.1-.1.1-.4.1-1v-.5c0-1.1,0-1.2-1-1.3l-.7.2a.3.3,0,0,1,0-.4h4.3c.1,0,.1.1.1.2s0,.2-.1.2H130c-.6.1-.7.2-.7,1.2Z" transform="translate(0 -0.36)"/><path class="cls-1" d="M142.6,77.8c0-.6,0-.7-.4-.7h-.9c-1.4,0-1.8.2-2.4,1.4a.44.44,0,0,1-.5-.1,15.83,15.83,0,0,0,.6-2.3.35.35,0,0,1,.2-.1c.1,0,.1,0,.2.1.1.4.3.4,1.3.4h6.2c.7,0,1,0,1.2-.4.1,0,.1-.1.2-.1s.1,0,.2.1a9.74,9.74,0,0,0-.2,2.4.45.45,0,0,1-.5,0c-.2-1.2-.5-1.5-2.1-1.5h-.9c-.4,0-.4,0-.4.7v6.6c0,1.6.1,1.7.9,1.7l.5.1c.1.1.1.4,0,.4h-4.6a.3.3,0,0,1,0-.4l.6-.1c.7-.1.9-.1.9-1.7Z" transform="translate(0 -0.36)"/><path d="M167.7,81.6a5.15,5.15,0,0,1-5.4,5.2,5,5,0,0,1-5.4-5.1,5.28,5.28,0,0,1,5.5-5.4A5.09,5.09,0,0,1,167.7,81.6Zm-8.8-.3c0,2.1.9,5,3.5,5,1.7,0,3.1-1.3,3.1-4.4,0-2.3-1-5-3.5-5-1.4,0-3.1,1.1-3.1,4.4Z" transform="translate(0 -0.36)"/><path class="cls-1" d="M186,84v2.7c-.1.2-.3.2-.5.2-.2-.3-.7-.8-1.8-2.1l-3.6-4.1c-1-1.1-1.5-1.7-1.7-1.9v4a8.08,8.08,0,0,0,.3,3,1.23,1.23,0,0,0,.8.4h.3c.1.1.1.4,0,.4h-3.3a.3.3,0,0,1,0-.4l.3-.1c.3-.1.6-.1.7-.4a11.93,11.93,0,0,0,.2-3V79.1c0-1.2,0-1.4-.5-1.9-.3-.1-.5-.3-.8-.3h-.2c-.1-.1-.1-.4.1-.4a10.74,10.74,0,0,0,1.8,0h1.1a18.5,18.5,0,0,0,2.5,3.2l1.5,1.6c.6.7,2.1,2.3,2.2,2.4V80.3a8.08,8.08,0,0,0-.3-3,1.23,1.23,0,0,0-.8-.4h-.4c-.1-.1-.1-.4,0-.4h3.4c.1.1.1.1.1.2s0,.2-.1.2l-.4.1c-.3.1-.5.1-.7.4a11.93,11.93,0,0,0-.2,3Z" transform="translate(0 -0.36)"/><path class="cls-1" d="M217.4,79.1a.45.45,0,0,1-.5,0,2.76,2.76,0,0,0-3-2.2c-1.9,0-3.9,1.4-3.9,4.5s2,4.8,4,4.8a3.35,3.35,0,0,0,3.2-2.3.31.31,0,0,1,.2-.1.35.35,0,0,1,.2.1,6.15,6.15,0,0,1-.7,2.3,4.33,4.33,0,0,0-.5.1,20,20,0,0,1-2.4.4,7.09,7.09,0,0,1-3.9-1,4.9,4.9,0,0,1-2.2-4.2,5,5,0,0,1,1.9-4,7,7,0,0,1,4.2-1.3,10.9,10.9,0,0,1,2.6.3c.2,0,.3.1.4.1A21.86,21.86,0,0,1,217.4,79.1Z" transform="translate(0 -0.36)"/><path d="M237.2,81.6a5.15,5.15,0,0,1-5.4,5.2,5,5,0,0,1-5.4-5.1,5.28,5.28,0,0,1,5.5-5.4A5,5,0,0,1,237.2,81.6Zm-8.7-.3c0,2.1.9,5,3.5,5,1.7,0,3.1-1.3,3.1-4.4,0-2.3-1-5-3.5-5-1.4,0-3.1,1.1-3.1,4.4Z" transform="translate(0 -0.36)"/><path class="cls-1" d="M248.9,84.1c0,.8,0,1.3.3,1.6s.4.3,1.7.3c1.7,0,1.9-.1,2.6-1.6a.44.44,0,0,1,.5.1c-.2.8-.4,1.5-.6,2.2h-7.5c-.1-.1-.2-.4,0-.4l.5-.1c.7-.1.9-.1.9-1.7V78.8c0-1.6-.1-1.6-.9-1.7L246,77c-.1-.1-.1-.4,0-.4h4.2c.1.1.1.1.1.2s0,.2-.1.2l-.3.1c-.7.1-.9.2-.9,1.7Z" transform="translate(0 -0.36)"/><path class="cls-1" d="M265.5,84.1c0,.8,0,1.3.3,1.6s.4.3,1.6.3c1.7,0,1.9-.1,2.6-1.6a.44.44,0,0,1,.5.1c-.2.8-.4,1.5-.6,2.2h-7.5c-.1-.1-.2-.4,0-.4l.5-.1c.7-.1.9-.1.9-1.7V78.8c0-1.6-.1-1.6-.9-1.7l-.4-.1c-.1-.1-.1-.4,0-.4h4.2c.1.1.1.1.1.2s0,.2-.1.2l-.3.1c-.7.1-.9.2-.9,1.7Z" transform="translate(0 -0.36)"/><path class="cls-1" d="M280.3,78.7c0-1.6-.1-1.7-.9-1.8h-.2a.3.3,0,0,1,0-.4h7a11.49,11.49,0,0,1,.2,2.1c-.1.1-.4.2-.5.1-.2-.9-.5-1.3-1-1.4a4.87,4.87,0,0,0-1.2-.1h-1c-.7,0-.7,0-.7.9v2.6c0,.4,0,.4.4.4h.7c1.3,0,1.6,0,1.7-.7l.1-.5a.45.45,0,0,1,.5,0V83a.45.45,0,0,1-.5,0l-.1-.6c-.1-.6-.4-.7-1.7-.7h-.7c-.4,0-.4,0-.4.4V84c0,.8,0,1.3.3,1.6s.4.3,1.7.3c1.9,0,2.3-.4,2.8-1.6.2-.1.4-.1.5.1a7.94,7.94,0,0,1-.6,2.2h-7.8a.3.3,0,0,1,0-.4l.6-.1c.7-.1.9-.1.9-1.7Z" transform="translate(0 -0.36)"/><path class="cls-1" d="M305.2,85a1.25,1.25,0,0,0,.4,1.1v.2c-.2,0-.5.1-.7.1a15.44,15.44,0,0,1-3,.4,6.34,6.34,0,0,1-4.7-1.7,4.52,4.52,0,0,1-1.3-3.5,5.43,5.43,0,0,1,1.4-3.6,6.42,6.42,0,0,1,4.9-1.8,12.31,12.31,0,0,1,2,.2,3.08,3.08,0,0,0,1,.1c0,.5.1,1.2.2,2.4-.1.1-.1.1-.2.1a.37.37,0,0,1-.3-.1,2.66,2.66,0,0,0-2.9-2.2c-2.7,0-4,1.9-4,4.5a5.6,5.6,0,0,0,1.1,3.5,4,4,0,0,0,3,1.3c.7,0,1.2-.1,1.4-.4.1-.1.1-.4.1-1v-.5c0-1.1,0-1.2-1-1.3l-.6-.1a.3.3,0,0,1,0-.4h4.3c.1,0,.1.1.1.2s0,.2-.1.2H306c-.6.1-.7.2-.7,1.2Z" transform="translate(0 -0.36)"/><path class="cls-1" d="M316.1,78.7c0-1.6-.1-1.7-.9-1.8H315a.3.3,0,0,1,0-.4h7a11.49,11.49,0,0,1,.2,2.1c-.1.1-.4.2-.5.1-.2-.9-.5-1.3-1-1.4a4.87,4.87,0,0,0-1.2-.1h-1c-.7,0-.7,0-.7.9v2.6c0,.4,0,.4.4.4h.7c1.3,0,1.6,0,1.7-.7l.1-.5a.45.45,0,0,1,.5,0V83a.45.45,0,0,1-.5,0l-.1-.6c-.1-.6-.4-.7-1.7-.7h-.7c-.4,0-.4,0-.4.4V84c0,.8,0,1.3.3,1.6s.4.3,1.7.3c1.9,0,2.3-.4,2.8-1.6.2-.1.4-.1.5.1a7.94,7.94,0,0,1-.6,2.2h-7.8a.3.3,0,0,1,0-.4l.6-.1c.7-.1.9-.1.9-1.7Z" transform="translate(0 -0.36)"/><path d="M144.4,29.9c-.3-.7-2.6,0-2.6,0a24.58,24.58,0,0,1-8,.4c-2.2-.4-3-3.2-4.2-2.6s-11.8,5.7-14,6.7c-2.5,1.2-1.7.1-1.2-2s.6-4.3-1.4-4.5-3.6.2-6.9,1.4c-2.1.8-2.6.9-2.3.4s.6-2.7-1.1-2.5-17.5,4.7-30.8,5.6c0,0,2.5-2,4.1-3.5,1.8-1.7,3.3-3.4,2.9-4.1-.5-.9-8,.3-14.3,1.6s-19.3,4-18.6.8,8.1-3.6,13.8-5,26.8-6.3,25.3-12.5-16.4-1.6-21.7.6c-4.8,2-14.8,6.9-18.7,12.1-.8,1.1-1.9,1.2-12.2,3.4-5,1.1-8,2.2-9.4,3.7a6.83,6.83,0,0,0-1.5,3.5c-.1.7-1.4.9-2.1,1.3-1.9,1-16.8,4.7-15.9,15.8s21.5,8.5,28.7,6c7-2.4,20.8-9.1,35.9-20.7,0,0,11.7-1.1,17.3-2.2,4-.7,9.6-2.4,11-2.5,1-.1,1.3.2.1,1.3C94,34.8,85.1,39,80.8,40.6S61,49.8,63.6,54.5c2.2,3.9,11.9-1.5,18-6.1S96.1,35.3,97.9,34.6c2.7-1.1,12.8-4.1,13.1-3,.9,2.7-3.1,6-3.1,6s-7,6-11.7,10.5-5.7,6.8-3.9,8.3,7.5-3.7,9.4-5.7,7.3-10.3,11.8-12.5,15.2-7.3,15.2-7.3a14.32,14.32,0,0,0,6,2.1,19.13,19.13,0,0,0,7.6-1.3S144.8,30.6,144.4,29.9ZM56.6,17.6c8.7-5,22.6-9.6,24-7.1S72.7,15.9,70,16.8c-3.3,1-15.8,4.7-19.6,5.3A38.87,38.87,0,0,1,56.6,17.6ZM26.8,54.7C12.2,58,5.9,52.9,6.6,48.4s5.9-10.3,20.2-13.6c6.2-1.4,8.1.4,8.2,2.9,0,0-1.1.2-2.5.5A33.1,33.1,0,0,0,22,42.6c-2.6,1.9-7.4,5.6-6,9.2,1,2.5,10.4.9,13.7-1.1,8.1-4.9,8.6-10.5,8.6-10.5s16.9-2.5,23.2-3.5c.1,0-18.4,14.3-34.7,18ZM35,40.8s-.8,4.4-6.3,7.2c-5.3,2.7-8.8,3-9.1,2-.4-1.3,1-2.9,4.1-5.2A27.2,27.2,0,0,1,35,40.8Zm30-7.2L42.2,36.8a19.37,19.37,0,0,1-3.8.4s-.9-4.8-5-5.2c-3.2-.3-7.4,1-7.4.5-.2-1.4,2-1.9,4.7-2.6s11.2-2.6,11.2-2.6-.6,2.3,2.4,3.6c5.1,2.3,20.5-1.2,23.3-1.8s6-1.7,4.8-.4C70.6,30.6,65,33.6,65,33.6ZM83.7,43.8c-10,8.2-14.2,9.1-14.2,9.1s-2.5.6-2.7.2c-.5-.9,1.3-2.7,1.3-2.7,4.3-4.3,13.1-8,13.1-8s6.4-2.5,6.1-2A23.68,23.68,0,0,1,83.7,43.8Z" transform="translate(0 -0.36)"/><path class="cls-1" d="M192.8,39.1s-1.9-.6-1.5-1.5,1.9-.3,1.9-.3,1.7.7,1.4,1.5S192.8,39.1,192.8,39.1Z" transform="translate(0 -0.36)"/><path d="M330.5,31.4c-2.5-4.6-11.5-3.1-23.2-3.8-1.7-.1-12.3-1-15.8-2.3a9.42,9.42,0,0,0-4.1.1,9.22,9.22,0,0,1-3.7,0c-10.4-2.6-14.2-5.2-14.2-5.2s4.3-1.9,8.3-8.8c4.2-7.1-.5-10.7-4.6-11-4.8-.4-12.8,2-14.2,8.7S263.5,20,263.5,20s-9.5,5.9-18.2,7.2a75.6,75.6,0,0,1-14,1s-4.3-.4-4.5,1.2,4.5,1.7,4.5,1.7c5.9,0,7.4.4,15.8-1.2A52.51,52.51,0,0,0,266.3,22a62,62,0,0,0,14,5.7,17.73,17.73,0,0,0,4,.8c-4.2,6.5-14,11.6-16.1,12.6s-5.2,2.7-3.8,3.3c1.1.5,5-1.8,7.1-2.1s-.1,1.4-1.6,2.7a54.7,54.7,0,0,1-9.8,6.5c-3.9,1.8-4.8,5.7-4.2,6.5s4.2-1.1,5.8-3.2c2-2.9,6.6-5.7,7.9-6.2s4.1.1,7,.5,2.7,1.3,2,2.5-1.7,3.6,1.8,4.9,8.8-.5,11-2.2,4.4-5.6,5.6-6,2.6.9,5.8.3c5.8-1.1,7.7-1.7,7.1-1-1,1.2-.8,2.7-2.5,4.1a41.35,41.35,0,0,1-5,3.2s-3.2,1.5-2.2,2.5a2.45,2.45,0,0,0,2.8.1c2-1.1,5.6-3.4,6.6-4s4.1,1.8,4.1,1.8c5.6,3.5,10,1.6,10,1.6s3.1-1.1,2.8-2.3-3.8.1-3.8.1c-4.2,1.2-6.2-.2-9.1-2s-1.9-3-1.3-3.7c1-1.2,2.5-1.7,1.8-3.1s-7.5-.7-10.6.1c-3.6.9-5.4-.2-7.2,0s-3.4,2.3-4.1,3.6c-1.2,2.2-3.1,3.2-5.3,4.2-1.4.6-6.4,1.8-6.3-.7s3.4-3.6,5-3.8,5.3.3,5.1-1.5-2-1.3-4.7-1.1c-2.2.2-4.9.4-4.9.4-1.3.1-10,.7-6.5-3.8,3.7-4.7,14.7-14.4,14.7-14.4,2.7-.1,14,1.1,18.4,1.2,15.9.3,18.9,1.8,19.8,2.7a2,2,0,0,1,.6,1.8c-.1.8.6.9,1,.7C330.5,34.2,331.4,33,330.5,31.4ZM261.7,10.5c0-5.8,6.6-7.4,9.2-7.5s6.7.8,3.8,7a18,18,0,0,1-8.2,8.5A9.48,9.48,0,0,1,261.7,10.5Z" transform="translate(0 -0.36)"/><path class="cls-1" d="M87.8,24.2c-1.3,0-1.3,1.4-1.3,1.4a1.4,1.4,0,0,0,1.3,1.3c1.2.1,1.3-1.3,1.3-1.3a1.69,1.69,0,0,0-.3-1A1.28,1.28,0,0,0,87.8,24.2Z" transform="translate(0 -0.36)"/><path class="cls-1" d="M73.9,38c-1.1.1-1.1,1.3-1.1,1.3a1.05,1.05,0,0,0,1.2,1,1,1,0,0,0,1.1-1.1C75,39.2,75,37.9,73.9,38Z" transform="translate(0 -0.36)"/><path d="M242.2,55c8.3-.4,13.6-4.1,13.1-6.7s-3.7-3.9-7.8-2.7c-4.9,1.4-11.9,7-11.9,7a69.61,69.61,0,0,1-10.2-.4c-5.3-.6-11-4.1-9.2-5.8s4.3-3.7,3.5-4.9-2.1-.4-6.4,2.1a111.14,111.14,0,0,1-18.6,7.7c-4.1,1.1-9.3,2.4-10.3.9s1.1-2.7,2.1-3,9.7-3.8,6.1-4.7-6.1,2.6-10.7,4.8a33.76,33.76,0,0,1-11.1,2.9c-1,0-1.3-1.3-.1-3.1s-.3-2.7-1.1-3.1-1.8-.9-.8-3.5c.2-.5,5.1-1.1,10.3-3a153.67,153.67,0,0,0,17.1-7.9c7.6-4.1,12.9-14.9.4-11.1S168,40.2,168,40.2a42.25,42.25,0,0,1-7.1,1.6s-1.6.2-1.5,1.3c.1.7,2.2.4,2.2.4a41.79,41.79,0,0,1,4.3-.5c.6,0-1.6,3.4-4.8,5.3a79.92,79.92,0,0,0-8.3,6.3s-1.7,1.6-.9,2.5,2.6-.9,2.6-.9a61.48,61.48,0,0,1,8.1-6.6c2.4-1.6,5.2-2,4.9.5s-3,3.1.3,4.6,6.5-.3,9.8-1.3,2.2-.9,4.5.9,9.5.4,14-1.1,13.1-5.2,14.8-5.7-.8,2.2-2.2,3.4c-1.8,1.5-3.8,2.1-5.7,3.9s-1.2,2.9.6,2.3,7.2-5.8,9.2-6.5,2.7-.1,3.9.9a22.87,22.87,0,0,0,7.3,3c1.9.3,7.5,1.2,8.8,1.2.8,0-2,1.7-4.1,3.9-1.4,1.4-3.8,3.7-3.8,3.7a6,6,0,0,0-2.6,0,6.91,6.91,0,0,0-3,1.7,51.52,51.52,0,0,0-15,3.1s-3.2,1.6-2.9,2.6,3.4-.2,3.4-.2c11.3-4.3,15.2-3.2,15.2-3.2,2.1,1.4,2-.2,6.4-.6s10.9,3.1,13,5.2c2.7,2.7,2.9,5.1,3.6,5s2.9-1.9.3-5.5-8.5-6-11.2-6.9a8,8,0,0,0-3.5-.6s7.7-7.6,8.9-8.4C238,54.9,241,55.1,242.2,55Zm5.3-6.7c3-.9,4.5-.6,4.3.2s-1.7,2.4-4.7,3a46.64,46.64,0,0,1-6.4.8S244.5,49.1,247.5,48.3Zm-75.2-9.2a129.82,129.82,0,0,1,13.6-10.9c8-5.5,14-5.2,14-5.2s1.7,2.7-11.5,9.4A90.39,90.39,0,0,1,172.3,39.1Z" transform="translate(0 -0.36)"/><path d="M155.3,38.5c-4.1,3.9-11.8,10.1-11.8,10.1-2,1.3-7.2,2.9-11.7,3.3-3.3.3-6,0-6.2-1s1.3-2.1,2.7-4.7-1.8-4.3-7.6-2.2a23,23,0,0,0-9.6,7s-2.4,3,0,3.9,9.2-1.6,10.3-2a2.18,2.18,0,0,1,1.9.1c4.4,2.8,12-.2,14.2-.5s2.7.1,1.2,2.2-9.5,9.3-11.2,10.7a54.24,54.24,0,0,1-7.9,5.2c-2,1.2-1.8,2.5-1.8,2.5.5,6.3,3.2,2,16.8-11.5s21.5-19.4,25.1-23.4C162.1,35.5,159.4,34.5,155.3,38.5Zm-34,12.3c-3.1,1.9-8.1,3-7.2.8a10.14,10.14,0,0,1,4.6-4.4c4.5-2.3,6.8-1.3,6.8-1.3a9.29,9.29,0,0,1-4.2,4.9Z" transform="translate(0 -0.36)"/></svg>